<?xml version="1.0" standalone="no"?>
<!DOCTYPE svg PUBLIC "-//W3C//DTD SVG 20010904//EN"
 "http://www.w3.org/TR/2001/REC-SVG-20010904/DTD/svg10.dtd">
<svg version="1.0" xmlns="http://www.w3.org/2000/svg"
 width="200.000000pt" height="200.000000pt" viewBox="0 0 200.000000 200.000000"
 preserveAspectRatio="xMidYMid meet">
<metadata>
Created by potrace 1.16, written by Peter Selinger 2001-2019
</metadata>
<g transform="translate(0.000000,200.000000) scale(0.100000,-0.100000)"
fill="#000000" stroke="none">
<path d="M1145 1760 c-60 -60 -88 -81 -115 -86 -53 -10 -88 -35 -173 -128 -43
-47 -91 -93 -107 -103 -54 -32 -31 -112 48 -167 38 -26 138 -66 165 -66 11 0
15 -29 19 -132 6 -139 9 -154 83 -343 24 -62 26 -79 21 -150 -8 -115 -11 -121
-61 -135 -58 -16 -110 -69 -124 -125 -12 -48 -8 -69 22 -102 l20 -23 403 0
c387 0 406 1 460 21 66 25 136 85 167 144 19 35 22 56 22 170 0 153 -9 184
-90 325 -46 80 -55 103 -55 145 0 59 22 100 75 140 30 23 36 34 33 59 -3 27
-7 31 -35 34 -26 3 -41 -5 -77 -38 -64 -59 -86 -110 -86 -197 0 -63 4 -79 35
-135 96 -172 108 -204 113 -304 4 -74 1 -104 -12 -139 -20 -51 -78 -106 -129
-122 l-34 -10 31 60 c28 54 31 71 34 167 7 189 -37 299 -217 542 -142 192
-151 211 -167 364 -14 136 -33 212 -70 286 -27 54 -90 128 -108 128 -6 0 -47
-36 -91 -80z"/>
<path d="M0 1361 l0 -161 35 0 c30 0 62 -20 199 -123 l163 -122 140 -34 c157
-38 184 -37 204 10 10 27 10 36 -2 58 -12 21 -35 32 -132 61 -71 21 -130 45
-150 61 -29 23 -124 175 -116 184 2 1 38 -17 79 -41 84 -50 113 -52 143 -13
29 40 14 68 -83 150 -129 110 -165 123 -337 127 l-143 4 0 -161z"/>
</g>
</svg>
