<?xml version="1.0" standalone="no"?>
<!DOCTYPE svg PUBLIC "-//W3C//DTD SVG 20010904//EN"
 "http://www.w3.org/TR/2001/REC-SVG-20010904/DTD/svg10.dtd">
<svg version="1.0" xmlns="http://www.w3.org/2000/svg"
 width="200.000000pt" height="200.000000pt" viewBox="0 0 200.000000 200.000000"
 preserveAspectRatio="xMidYMid meet">
<metadata>
Created by potrace 1.16, written by Peter Selinger 2001-2019
</metadata>
<g transform="translate(0.000000,200.000000) scale(0.100000,-0.100000)"
fill="#000000" stroke="none">
<path d="M825 1430 c377 -377 577 -570 590 -570 27 0 34 6 89 78 27 34 50 62
51 62 1 0 36 -18 79 -40 118 -61 182 -53 265 34 28 30 51 60 51 66 0 14 -67
87 -254 277 l-150 152 47 50 c26 28 47 57 47 66 0 20 -36 55 -57 55 -9 0 -109
-92 -223 -205 l-205 -205 -375 375 -375 375 -75 0 -75 0 570 -570z"/>
<path d="M112 1274 c-41 -29 -29 -59 61 -153 l83 -86 -26 -50 -25 -50 -3 -402
c-3 -443 -3 -447 58 -478 37 -19 64 -19 105 1 59 28 65 55 65 303 0 122 3 221
8 221 4 0 177 -32 385 -72 l377 -72 0 -154 c0 -175 9 -204 66 -228 47 -20 95
-9 131 28 l28 29 3 296 3 296 -239 240 -239 239 -249 -4 c-248 -3 -249 -3
-308 -31 l-60 -28 -75 75 c-64 62 -107 96 -123 96 -2 0 -14 -7 -26 -16z"/>
</g>
</svg>
