<?xml version="1.0" standalone="no"?>
<!DOCTYPE svg PUBLIC "-//W3C//DTD SVG 20010904//EN"
 "http://www.w3.org/TR/2001/REC-SVG-20010904/DTD/svg10.dtd">
<svg version="1.0" xmlns="http://www.w3.org/2000/svg"
 width="252.000000pt" height="287.000000pt" viewBox="0 0 252.000000 287.000000"
 preserveAspectRatio="xMidYMid meet">

<g transform="translate(0.000000,287.000000) scale(0.100000,-0.100000)"
fill="#000000" stroke="none">
<path d="M822 1630 c-43 -26 -76 -98 -67 -143 15 -69 71 -117 138 -117 81 0
141 60 141 140 0 110 -119 177 -212 120z m145 -66 c3 -8 -2 -23 -11 -32 -15
-15 -17 -15 -33 0 -13 14 -14 20 -3 32 16 20 39 20 47 0z"/>
<path d="M1555 1631 c-70 -42 -91 -136 -46 -199 99 -139 311 -23 242 132 -34
79 -126 110 -196 67z m45 -67 c11 -12 10 -18 -3 -32 -16 -15 -18 -15 -33 0
-19 18 -12 48 9 48 8 0 20 -7 27 -16z"/>
<path d="M1143 1189 c-17 -5 -43 -24 -58 -41 -24 -29 -27 -38 -23 -93 7 -110
77 -169 198 -169 121 0 191 59 198 169 4 54 1 64 -23 93 -14 17 -43 36 -63 42
-45 12 -185 12 -229 -1z"/>
<path d="M766 1052 c-3 -4 2 -21 9 -37 8 -17 36 -77 63 -135 27 -59 65 -131
85 -162 40 -63 104 -138 118 -138 5 0 9 36 9 80 0 95 -3 92 130 110 67 8 104
8 176 -3 50 -8 96 -17 102 -21 8 -4 12 -37 12 -87 0 -43 4 -79 9 -79 14 0 78
75 118 138 20 31 58 103 85 162 27 58 55 118 63 135 7 16 12 33 9 37 -11 18
-35 -9 -83 -97 -29 -52 -65 -105 -81 -119 -41 -34 -106 -42 -215 -26 -49 7
-101 13 -115 13 -14 0 -66 -6 -115 -13 -109 -16 -174 -8 -215 26 -16 14 -52
67 -81 119 -48 88 -72 115 -83 97z"/>
</g>
</svg>
